<?xml version="1.0" encoding="UTF-8" standalone="no"?>
<svg
   xmlns:dc="http://purl.org/dc/elements/1.1/"
   xmlns:cc="http://creativecommons.org/ns#"
   xmlns:rdf="http://www.w3.org/1999/02/22-rdf-syntax-ns#"
   xmlns:svg="http://www.w3.org/2000/svg"
   xmlns="http://www.w3.org/2000/svg"
   width="19.332001mm"
   height="19.332001mm"
   viewBox="0 0 19.332001 19.332001"
   version="1.1"
   id="svg85777">
  <defs
     id="defs85771" />
  <metadata
     id="metadata85774">
    <rdf:RDF>
      <cc:Work
         rdf:about="">
        <dc:format>image/svg+xml</dc:format>
        <dc:type
           rdf:resource="http://purl.org/dc/dcmitype/StillImage" />
        <dc:title></dc:title>
      </cc:Work>
    </rdf:RDF>
  </metadata>
  <g
     id="layer1">
    <g
       id="g8933"
       style="fill:#1a2635;fill-opacity:1"
       transform="translate(453.70481,-1290.7452)">
      <path
         style="color:#000000;font-style:normal;font-variant:normal;font-weight:normal;font-stretch:normal;font-size:medium;line-height:normal;font-family:sans-serif;font-variant-ligatures:normal;font-variant-position:normal;font-variant-caps:normal;font-variant-numeric:normal;font-variant-alternates:normal;font-variant-east-asian:normal;font-feature-settings:normal;font-variation-settings:normal;text-indent:0;text-align:start;text-decoration:none;text-decoration-line:none;text-decoration-style:solid;text-decoration-color:#000000;letter-spacing:normal;word-spacing:normal;text-transform:none;writing-mode:lr-tb;direction:ltr;text-orientation:mixed;dominant-baseline:auto;baseline-shift:baseline;text-anchor:start;white-space:normal;shape-padding:0;shape-margin:0;inline-size:0;clip-rule:nonzero;display:inline;overflow:visible;visibility:visible;isolation:auto;mix-blend-mode:normal;color-interpolation:sRGB;color-interpolation-filters:linearRGB;solid-color:#000000;solid-opacity:1;vector-effect:none;fill:#1a2635;fill-opacity:1;fill-rule:nonzero;stroke:none;stroke-width:1.22642;stroke-linecap:round;stroke-linejoin:miter;stroke-miterlimit:4;stroke-dasharray:none;stroke-dashoffset:0;stroke-opacity:1;paint-order:normal;color-rendering:auto;image-rendering:auto;shape-rendering:auto;text-rendering:auto;enable-background:accumulate;stop-color:#000000"
         d="m -444.03881,1290.7451 c -5.33139,0 -9.66686,4.3354 -9.66686,9.6668 0,5.3314 4.33547,9.6654 9.66686,9.6654 5.3314,0 9.66687,-4.334 9.66687,-9.6654 0,-5.3314 -4.33547,-9.6668 -9.66687,-9.6668 z m 0,1.2261 c 4.6686,0 8.43921,3.7721 8.4392,8.4407 0,4.6686 -3.77061,8.4392 -8.4392,8.4392 -4.66859,0 -8.44074,-3.7706 -8.44074,-8.4392 0,-4.6686 3.77215,-8.4407 8.44074,-8.4407 z"
         id="path5877" />
      <path
         id="path5879"
         style="fill:#1a2635;fill-opacity:1;stroke:none;stroke-width:3.96457;stroke-linecap:round;stroke-linejoin:miter;stroke-miterlimit:4;stroke-dasharray:none;stroke-dashoffset:0;stroke-opacity:1;paint-order:normal"
         d="m -1692.5352,4917.9023 v 4.3594 h -4.3554 v 3.2656 h -2.6699 v 16.9786 h 2.6699 v 1.1328 c 5.5469,3.6019 12.0192,5.5195 18.6328,5.5195 6.6136,0 13.084,-1.9176 18.6308,-5.5195 v -1.1328 h 2.6739 v -16.9786 h -2.6739 v -3.2656 h -4.3535 v -4.3594 z"
         transform="scale(0.26458333)" />
      <path
         id="circle5881"
         style="fill:#1a2635;fill-opacity:1;stroke:none;stroke-width:1.84849;stroke-linecap:round;stroke-linejoin:miter;stroke-miterlimit:4;stroke-dasharray:none;stroke-dashoffset:0;stroke-opacity:1;paint-order:normal"
         d="m -441.28302,1297.378 a 2.8246782,2.8246782 0 0 1 -2.82467,2.8247 2.8246782,2.8246782 0 0 1 -2.82468,-2.8247 2.8246782,2.8246782 0 0 1 2.82468,-2.8247 2.8246782,2.8246782 0 0 1 2.82467,2.8247 z" />
    </g>
  </g>
</svg>
