<?xml version="1.0" encoding="UTF-8" standalone="no"?>
<svg
   xmlns:dc="http://purl.org/dc/elements/1.1/"
   xmlns:cc="http://creativecommons.org/ns#"
   xmlns:rdf="http://www.w3.org/1999/02/22-rdf-syntax-ns#"
   xmlns:svg="http://www.w3.org/2000/svg"
   xmlns="http://www.w3.org/2000/svg"
   width="19.332001mm"
   height="19.332001mm"
   viewBox="0 0 19.332001 19.332001"
   version="1.1"
   id="svg85777">
  <defs
     id="defs85771" />
  <metadata
     id="metadata85774">
    <rdf:RDF>
      <cc:Work
         rdf:about="">
        <dc:format>image/svg+xml</dc:format>
        <dc:type
           rdf:resource="http://purl.org/dc/dcmitype/StillImage" />
        <dc:title></dc:title>
      </cc:Work>
    </rdf:RDF>
  </metadata>
  <g
     id="layer1">
    <path
       id="path69174"
       style="color:#000000;font-style:normal;font-variant:normal;font-weight:normal;font-stretch:normal;font-size:medium;line-height:normal;font-family:sans-serif;font-variant-ligatures:normal;font-variant-position:normal;font-variant-caps:normal;font-variant-numeric:normal;font-variant-alternates:normal;font-variant-east-asian:normal;font-feature-settings:normal;font-variation-settings:normal;text-indent:0;text-align:start;text-decoration:none;text-decoration-line:none;text-decoration-style:solid;text-decoration-color:#000000;letter-spacing:normal;word-spacing:normal;text-transform:none;writing-mode:lr-tb;direction:ltr;text-orientation:mixed;dominant-baseline:auto;baseline-shift:baseline;text-anchor:start;white-space:normal;shape-padding:0;shape-margin:0;inline-size:0;clip-rule:nonzero;display:inline;overflow:visible;visibility:visible;opacity:0.999;isolation:auto;mix-blend-mode:normal;color-interpolation:sRGB;color-interpolation-filters:linearRGB;solid-color:#000000;solid-opacity:1;vector-effect:none;fill:#1a2635;fill-opacity:1;fill-rule:nonzero;stroke:none;stroke-width:0.803242;stroke-linecap:butt;stroke-linejoin:miter;stroke-miterlimit:4;stroke-dasharray:none;stroke-dashoffset:0;stroke-opacity:1;paint-order:normal;color-rendering:auto;image-rendering:auto;shape-rendering:auto;text-rendering:auto;enable-background:accumulate;stop-color:#000000;stop-opacity:1"
       d="M 1.1334734,3.1708671 V 3.5721656 3.7354569 H 0.56673337 V 4.300445 H 3.6621094e-7 v 0.9663662 8.6576288 0.13828 0.428939 0.537507 H 0.56673337 v 0.0223 0.541809 H 1.1334734 v 0.0239 0.543959 H 18.198535 v -0.543959 -0.0239 h 0.566725 v -0.541809 -0.0223 H 19.332 V 14.491659 14.06272 13.92444 5.2668112 4.300445 H 18.76526 V 3.7354569 H 18.198535 V 3.1708671 Z M 0.96797537,5.2606778 V 5.8263032 H 2.1014564 v 0.5657054 h 1.133457 v 0.565546 h 1.133457 v 0.566261 h 1.133473 v 0.566104 h 1.133465 v 0.566263 h 1.133465 v 0.566103 h 1.133466 v 0.566263 h 1.5264066 v -0.566263 h 1.133465 v -0.566103 h 1.133473 v -0.566263 h 1.133457 v -0.566104 h 1.133465 v -0.566261 h 1.133474 v -0.565546 h 1.133457 V 5.8263032 h 1.133465 V 5.2606778 h 0.166039 v 0 8.6577082 0.13836 0.162654 h -0.566732 v 0.565068 h -0.567291 v 0.56682 H 1.9370744 v -0.56682 H 1.3697834 V 14.2194 H 0.80305937 v -0.162654 -0.13836 -8.6577082 0 z" />
  </g>
</svg>
