<?xml version="1.0" encoding="UTF-8" standalone="no"?>
<svg
   xmlns:dc="http://purl.org/dc/elements/1.1/"
   xmlns:cc="http://creativecommons.org/ns#"
   xmlns:rdf="http://www.w3.org/1999/02/22-rdf-syntax-ns#"
   xmlns:svg="http://www.w3.org/2000/svg"
   xmlns="http://www.w3.org/2000/svg"
   xmlns:sodipodi="http://sodipodi.sourceforge.net/DTD/sodipodi-0.dtd"
   xmlns:inkscape="http://www.inkscape.org/namespaces/inkscape"
   width="40.138mm"
   height="40.138mm"
   viewBox="0 0 40.138 40.138"
   version="1.1"
   id="svg8274"
   sodipodi:docname="laravel+.svg"
   inkscape:version="1.0.1 (3bc2e813f5, 2020-09-07)">
  <sodipodi:namedview
     pagecolor="#ffffff"
     bordercolor="#666666"
     borderopacity="1"
     objecttolerance="10"
     gridtolerance="10"
     guidetolerance="10"
     inkscape:pageopacity="0"
     inkscape:pageshadow="2"
     inkscape:window-width="1440"
     inkscape:window-height="863"
     id="namedview9"
     showgrid="false"
     inkscape:zoom="2.5682858"
     inkscape:cx="123.26718"
     inkscape:cy="86.28621"
     inkscape:window-x="1366"
     inkscape:window-y="0"
     inkscape:window-maximized="1"
     inkscape:current-layer="svg8274" />
  <defs
     id="defs8268" />
  <metadata
     id="metadata8271">
    <rdf:RDF>
      <cc:Work
         rdf:about="">
        <dc:format>image/svg+xml</dc:format>
        <dc:type
           rdf:resource="http://purl.org/dc/dcmitype/StillImage" />
        <dc:title></dc:title>
      </cc:Work>
    </rdf:RDF>
  </metadata>
  <path
     d="m 39.541666,9.0804164 a 0.63524213,0.63524213 0 0 1 0.02196,0.164117 v 8.6154216 a 0.62817516,0.62817516 0 0 1 -0.315633,0.544942 l -7.231082,4.163229 v 8.251865 c 0,0.224571 -0.119363,0.431871 -0.314087,0.544943 l -15.094261,8.689233 c -0.03454,0.01959 -0.07223,0.0322 -0.109925,0.04556 -0.01425,0.0047 -0.0276,0.01336 -0.04241,0.01721 a 0.63210127,0.63210127 0 0 1 -0.321942,0 c -0.01721,-0.0047 -0.03297,-0.01425 -0.04947,-0.02048 -0.03455,-0.01246 -0.07066,-0.02344 -0.103664,-0.04241 L 0.89003304,31.364934 a 0.62896037,0.62896037 0 0 1 -0.31566,-0.544943 V 4.9737274 c 0,-0.05654 0.0077,-0.111499 0.02196,-0.164889 0.0047,-0.0181 0.01573,-0.03454 0.02196,-0.05262 0.01187,-0.03297 0.02285,-0.06675 0.04004,-0.09737 0.01187,-0.02048 0.02908,-0.03692 0.04318,-0.05576 0.0181,-0.02523 0.03454,-0.05105 0.05573,-0.07304 0.0181,-0.0181 0.04161,-0.0314 0.06203,-0.0471 0.02285,-0.0187 0.04318,-0.03926 0.06909,-0.05419 h 7.86e-4 L 8.435104,0.08413839 a 0.62974561,0.62974561 0 0 1 0.628173,0 l 7.545955,4.34461701 h 0.0016 c 0.02523,0.01573 0.04633,0.03535 0.06909,0.05339 0.02048,0.01573 0.04318,0.02983 0.06126,0.04713 0.02196,0.02285 0.03769,0.04867 0.05654,0.07381 0.01335,0.0187 0.0314,0.03535 0.04241,0.05577 0.0181,0.0314 0.02819,0.0644 0.04084,0.09737 0.0062,0.0181 0.01721,0.03454 0.02196,0.05339 a 0.63524213,0.63524213 0 0 1 0.02196,0.164117 V 21.117043 l 6.288024,-3.620642 V 9.2437494 c 0,-0.05496 0.008,-0.110727 0.02196,-0.163316 0.0053,-0.0187 0.01573,-0.03535 0.02196,-0.05339 0.01247,-0.03297 0.02345,-0.06674 0.04084,-0.09737 0.01187,-0.02048 0.02908,-0.03689 0.04241,-0.05573 0.01899,-0.02523 0.03455,-0.05105 0.05654,-0.07304 0.0181,-0.0181 0.04084,-0.0314 0.06125,-0.0471 0.02345,-0.0187 0.04398,-0.03926 0.06909,-0.05419 h 7.83e-4 l 7.546733,-4.344621 a 0.62896037,0.62896037 0 0 1 0.628176,0 l 7.545952,4.344618 c 0.02671,0.01573 0.0471,0.03535 0.07066,0.05339 0.01959,0.01573 0.04241,0.02983 0.06045,0.04713 0.02196,0.02285 0.03769,0.04867 0.05654,0.07381 0.01425,0.0187 0.0314,0.03535 0.04241,0.05573 0.0181,0.03063 0.02819,0.0644 0.04084,0.09737 0.0071,0.0181 0.01721,0.03455 0.02196,0.05339 z m -1.235934,8.4159766 v -7.16434 l -2.640692,1.520186 -3.648127,2.100459 v 7.164337 l 6.289603,-3.620642 z m -7.545955,12.960036 v -7.169046 l -3.588451,2.04942 -10.247106,5.848312 v 7.236578 z M 1.832313,6.0612494 V 30.456429 l 13.833988,7.964477 v -7.235008 l -7.227156,-4.090204 -0.0024,-0.0016 -0.0033,-0.0016 c -0.02434,-0.01424 -0.04475,-0.03454 -0.06752,-0.05182 -0.01959,-0.01573 -0.04241,-0.02819 -0.05968,-0.04556 l -0.0016,-0.0024 c -0.02048,-0.01959 -0.03455,-0.04398 -0.05182,-0.06597 -0.01573,-0.02107 -0.03455,-0.03926 -0.04713,-0.06125 l -7.83e-4,-0.0024 c -0.01425,-0.02345 -0.02285,-0.05182 -0.03297,-0.07853 -0.01009,-0.02345 -0.02345,-0.04556 -0.02983,-0.07066 v -7.86e-4 c -0.0077,-0.02983 -0.0095,-0.06125 -0.01246,-0.09188 -0.0033,-0.02345 -0.0095,-0.0471 -0.0095,-0.07066 V 26.548978 9.6816884 L 4.473002,7.5806464 1.832313,6.0620334 Z m 6.917779,-4.706604 -6.287249,3.619076 6.285676,3.619072 6.286465,-3.619859 -6.286465,-3.618289 z m 3.269652,22.5860386 3.64734,-2.099676 V 6.0612494 l -2.640692,1.520183 -3.648127,2.10046 V 25.461653 Z M 31.388737,5.6254524 25.102274,9.2445274 31.388737,12.8636 37.674416,9.2437414 Z m -0.62896,8.3272456 -3.648127,-2.100459 -2.640692,-1.520186 v 7.16434 l 3.647344,2.099673 2.641475,1.520969 z m -14.465303,16.144888 9.220826,-5.264109 4.609235,-2.630483 -6.28175,-3.616719 -7.232652,4.164018 -6.591913,3.794962 z"
     fill="#ff2d20"
     fill-rule="evenodd"
     id="path836"
     style="stroke-width:0.785218" />
</svg>
