<?xml version="1.0" encoding="UTF-8" standalone="no"?>
<svg
   xmlns:dc="http://purl.org/dc/elements/1.1/"
   xmlns:cc="http://creativecommons.org/ns#"
   xmlns:rdf="http://www.w3.org/1999/02/22-rdf-syntax-ns#"
   xmlns:svg="http://www.w3.org/2000/svg"
   xmlns="http://www.w3.org/2000/svg"
   width="80.276001mm"
   height="40.138mm"
   viewBox="0 0 80.276 40.138"
   version="1.1"
   id="svg950">
  <defs
     id="defs944" />
  <metadata
     id="metadata947">
    <rdf:RDF>
      <cc:Work
         rdf:about="">
        <dc:format>image/svg+xml</dc:format>
        <dc:type
           rdf:resource="http://purl.org/dc/dcmitype/StillImage" />
        <dc:title></dc:title>
      </cc:Work>
    </rdf:RDF>
  </metadata>
  <g
     id="layer1">
    <path
       id="rect889"
       style="opacity:0.999;fill:#76af77;fill-opacity:1;stroke:none;stroke-width:0.688496;stroke-linecap:round;stroke-linejoin:round;stroke-dasharray:2.06549, 2.06549"
       d="m -38.3219,-3.7351091 c -2.536264,0 -4.578341,2.04159 -4.578341,4.57787 V 31.824552 c 0,2.53627 2.042077,4.57834 4.578341,4.57834 h 30.9817991 c 2.536264,0 4.57834,-2.04207 4.57834,-4.57834 V 3.1682509 L -16.604583,14.86365 l -8.504191,-9.4876691 4.790613,-4.29293 4.334252,4.83524 10.7936011,-9.11964 c -0.640485,-0.33985 -1.371465,-0.53376 -2.149793,-0.53376 z m 5.468271,20.6217591 c 0.834144,0 1.599033,0.11177 2.294155,0.33574 0.695122,0.21626 1.30132,0.52902 1.818799,0.93837 0.525204,0.40935 0.946047,0.91529 1.262713,1.51773 0.316668,0.59471 0.509845,1.26669 0.579355,2.01587 h -2.780434 c -0.324389,-1.45203 -1.355579,-2.17829 -3.093384,-2.17829 -0.926829,0 -1.637437,0.15869 -2.131747,0.47536 -0.486583,0.30894 -0.729894,0.73346 -0.729894,1.27411 0,0.22399 0.05428,0.42131 0.162411,0.59123 0.108128,0.16219 0.27784,0.31259 0.509547,0.45162 0.239432,0.1313 0.540694,0.25503 0.903702,0.37088 0.370732,0.115851 0.818715,0.227601 1.343916,0.335741 0.455692,0.100399 0.922993,0.208489 1.401854,0.32434 0.486583,0.10814 0.957557,0.243358 1.41325,0.40555 0.463415,0.1622 0.899901,0.35905 1.309249,0.590749 0.40935,0.223991 0.768565,0.502271 1.077508,0.834379 0.308943,0.332121 0.552253,0.722141 0.729896,1.170112 0.17764,0.447958 0.266408,0.96906 0.266408,1.563781 0,0.70285 -0.14672,1.34815 -0.440216,1.935139 -0.285773,0.579271 -0.687298,1.081061 -1.204775,1.50586 -0.517482,0.417071 -1.131502,0.745479 -1.84207,0.984901 -0.702844,0.231719 -1.475555,0.347609 -2.317426,0.347609 -1.050405,0 -1.973035,-0.127399 -2.768564,-0.38227 -0.795527,-0.262599 -1.4675,-0.629639 -2.015874,-1.10078 -0.540651,-0.471141 -0.965642,-1.035021 -1.274586,-1.691529 -0.301218,-0.6565 -0.486573,-1.382281 -0.556087,-2.177813 h 2.79231 c 0.09268,0.471131 0.250898,0.880482 0.474881,1.228052 0.231707,0.33983 0.509503,0.625461 0.833894,0.85716 0.332113,0.223991 0.703298,0.390019 1.112649,0.498149 0.409349,0.10813 0.841686,0.162412 1.297379,0.162412 0.463414,0 0.884255,-0.0465 1.262712,-0.139142 0.386179,-0.0927 0.714581,-0.224229 0.984905,-0.39415 0.278048,-0.177638 0.490544,-0.390138 0.637292,-0.637299 0.146749,-0.254881 0.21987,-0.536339 0.21987,-0.845291 0,-0.308939 -0.07312,-0.575721 -0.21987,-0.799698 -0.139023,-0.223981 -0.370837,-0.420831 -0.695227,-0.590762 -0.32439,-0.1699 -0.749381,-0.328128 -1.274585,-0.474869 -0.525204,-0.146751 -1.170037,-0.301292 -1.93467,-0.463492 -0.872764,-0.18537 -1.625681,-0.405688 -2.259017,-0.660559 -0.633332,-0.262598 -1.154911,-0.567539 -1.564261,-0.91509 -0.401625,-0.355291 -0.698739,-0.764641 -0.891829,-1.228061 -0.19309,-0.463409 -0.289677,-0.996489 -0.289677,-1.598919 0,-0.64106 0.135222,-1.23162 0.405548,-1.77227 0.270325,-0.54837 0.648859,-1.01981 1.135446,-1.41371 0.494307,-0.39391 1.084862,-0.69885 1.772259,-0.91511 0.687398,-0.22397 1.448138,-0.33574 2.282285,-0.33574 z m 13.670911,4.21696 c 0.803252,0 1.525357,0.13107 2.166415,0.39367 0.64878,0.26261 1.201175,0.64115 1.656864,1.13545 0.455689,0.494311 0.807082,1.100501 1.05424,1.818791 0.247153,0.718299 0.370406,1.533308 0.370406,2.444708 v 0.869032 h -7.622811 c 0.139025,0.872771 0.436139,1.529091 0.891829,1.96934 0.46341,0.432511 1.023628,0.648689 1.680134,0.648689 0.208535,0 0.416878,-0.0308 0.62542,-0.0926 0.21626,-0.0618 0.413113,-0.15055 0.590754,-0.266409 0.185364,-0.123571 0.343582,-0.27029 0.474881,-0.440221 0.139027,-0.177628 0.23976,-0.38231 0.301551,-0.614011 h 2.861641 c -0.139025,0.602432 -0.359341,1.135502 -0.660561,1.598922 -0.293495,0.46341 -0.652712,0.85344 -1.077508,1.170109 -0.417076,0.31667 -0.892197,0.555832 -1.425123,0.718029 -0.5252,0.162192 -1.088615,0.243131 -1.691055,0.243131 -0.810977,0 -1.552398,-0.131069 -2.224348,-0.393679 -0.664227,-0.262601 -1.235941,-0.64113 -1.714802,-1.135441 -0.478864,-0.502038 -0.849572,-1.1119 -1.112172,-1.830189 -0.262604,-0.71829 -0.394154,-1.533311 -0.394154,-2.444692 0,-0.895951 0.127403,-1.698991 0.382281,-2.409561 0.254876,-0.718299 0.614094,-1.328639 1.077508,-1.830669 0.463417,-0.50204 1.015808,-0.88424 1.656864,-1.14684 0.641054,-0.27032 1.351664,-0.40555 2.131746,-0.40555 z m 0,2.316949 c -0.548377,0 -1.027174,0.169712 -1.436518,0.509551 -0.409352,0.33983 -0.702785,0.84991 -0.880433,1.529601 h 4.622505 c -0.177645,-0.679691 -0.46741,-1.189771 -0.869035,-1.529601 -0.401625,-0.339839 -0.880423,-0.509551 -1.436519,-0.509551 z" />
    <g
       fill-rule="evenodd"
       id="g1556"
       transform="matrix(4.7437459,0,0,4.7437459,-3.152259,8.128793)">
      <g
         fill="#00678c"
         id="g1550">
        <path
           d="M 2.92,2.906 C 2.787,2.903 2.683,2.916 2.596,2.953 2.571,2.963 2.531,2.963 2.528,2.995 2.541,3.008 2.543,3.03 2.555,3.048 A 0.39,0.39 0 0 0 2.642,3.15 l 0.107,0.077 c 0.065,0.04 0.138,0.063 0.202,0.103 0.037,0.023 0.073,0.053 0.1,0.078 0.018,0.013 0.03,0.035 0.053,0.043 V 3.446 C 3.092,3.431 3.089,3.409 3.077,3.393 L 3.027,3.345 A 0.79,0.79 0 0 0 2.854,3.177 C 2.801,3.14 2.684,3.09 2.662,3.029 L 2.659,3.026 C 2.696,3.023 2.739,3.009 2.774,2.999 2.831,2.984 2.882,2.987 2.941,2.972 L 3.021,2.949 V 2.934 C 2.991,2.904 2.969,2.864 2.938,2.836 2.853,2.763 2.76,2.691 2.663,2.631 2.611,2.598 2.545,2.576 2.49,2.548 2.47,2.538 2.437,2.533 2.425,2.516 2.395,2.479 2.378,2.431 2.357,2.388 L 2.22,2.098 C 2.19,2.033 2.172,1.968 2.135,1.908 A 1.68,1.68 0 0 0 1.49,1.284 C 1.428,1.249 1.355,1.234 1.277,1.216 L 1.152,1.209 C 1.125,1.197 1.099,1.166 1.075,1.151 0.98,1.091 0.735,0.961 0.675,1.133 0.63,1.241 0.742,1.348 0.78,1.403 0.808,1.441 0.845,1.485 0.865,1.528 0.877,1.556 0.88,1.586 0.892,1.616 L 0.979,1.839 A 0.8,0.8 0 0 0 1.041,1.942 C 1.054,1.96 1.078,1.969 1.083,1.999 1.06,2.032 1.058,2.082 1.045,2.124 0.985,2.312 1.008,2.546 1.093,2.684 1.12,2.726 1.193,2.817 1.268,2.782 1.343,2.752 1.326,2.657 1.348,2.574 1.353,2.554 1.35,2.541 1.36,2.527 V 2.53 L 1.428,2.668 C 1.48,2.75 1.57,2.835 1.645,2.891 c 0.04,0.03 0.072,0.082 0.122,0.1 V 2.986 H 1.76 C 1.75,2.971 1.735,2.964 1.722,2.953 A 0.81,0.81 0 0 1 1.635,2.853 2.15,2.15 0 0 1 1.448,2.55 C 1.421,2.498 1.398,2.442 1.376,2.39 1.366,2.37 1.366,2.34 1.349,2.33 1.324,2.367 1.287,2.398 1.269,2.443 1.237,2.515 1.234,2.603 1.222,2.695 1.162,2.685 1.144,2.63 1.124,2.583 1.074,2.465 1.066,2.273 1.109,2.138 1.121,2.103 1.171,1.993 1.151,1.96 1.141,1.928 1.108,1.91 1.089,1.885 1.067,1.853 1.044,1.813 1.029,1.778 1,1.684 0.97,1.58 0.927,1.487 0.907,1.444 0.872,1.4 0.843,1.36 0.812,1.314 0.777,1.282 0.752,1.23 0.743,1.21 0.732,1.18 0.745,1.16 0.748,1.147 0.755,1.142 0.768,1.138 0.79,1.12 0.851,1.143 0.873,1.153 0.935,1.178 0.986,1.201 1.038,1.236 1.061,1.253 1.086,1.284 1.116,1.293 h 0.035 c 0.053,0.012 0.113,0.003 0.163,0.018 0.088,0.028 0.168,0.07 0.24,0.115 a 1.48,1.48 0 0 1 0.52,0.57 c 0.02,0.038 0.028,0.073 0.047,0.113 l 0.113,0.245 c 0.035,0.078 0.068,0.158 0.118,0.223 0.025,0.035 0.125,0.053 0.17,0.072 0.033,0.015 0.085,0.028 0.115,0.047 l 0.167,0.113 c 0.027,0.02 0.1,0.062 0.115,0.095 z"
           id="path1546" />
        <path
           d="M 1.22,1.457 C 1.192,1.457 1.172,1.46 1.152,1.465 V 1.468 H 1.155 C 1.168,1.495 1.192,1.513 1.208,1.536 L 1.246,1.616 1.249,1.613 C 1.272,1.596 1.284,1.57 1.284,1.53 1.274,1.518 1.272,1.507 1.264,1.495 1.254,1.478 1.232,1.47 1.219,1.457 Z"
           id="path1548" />
      </g>
      <path
         d="m 10.064,3.34 h 1.434 c 0.168,0 0.328,-0.034 0.458,-0.095 0.217,-0.1 0.32,-0.233 0.32,-0.408 V 2.471 c 0,-0.14 -0.118,-0.275 -0.354,-0.366 A 1.25,1.25 0 0 0 11.499,2.033 H 10.897 C 10.695,2.033 10.6,1.973 10.573,1.839 10.569,1.824 10.569,1.809 10.569,1.793 V 1.568 c 0,-0.012 0,-0.027 0.004,-0.042 0.027,-0.103 0.08,-0.13 0.256,-0.15 h 1.468 V 1.044 H 10.9 c -0.202,0 -0.31,0.012 -0.404,0.042 -0.294,0.09 -0.423,0.236 -0.423,0.492 v 0.29 c 0,0.225 0.252,0.416 0.68,0.46 0.046,0.004 0.095,0.004 0.145,0.004 h 0.515 c 0.02,0 0.038,0 0.053,0.004 0.156,0.015 0.225,0.042 0.27,0.1 0.03,0.03 0.038,0.057 0.038,0.092 v 0.29 c 0,0.034 -0.023,0.08 -0.07,0.118 -0.047,0.038 -0.118,0.065 -0.214,0.07 -0.02,0 -0.03,0.004 -0.05,0.004 h -1.376 z m 5.315,-0.576 c 0,0.34 0.256,0.53 0.767,0.568 l 0.145,0.008 h 1.296 V 3.01 H 16.28 c -0.3,0 -0.4,-0.072 -0.4,-0.248 V 1.045 h -0.5 v 1.72 z M 12.592,2.779 V 1.598 c 0,-0.3 0.213,-0.484 0.63,-0.54 L 13.355,1.05 h 0.946 c 0.05,0 0.092,0.004 0.14,0.008 0.416,0.057 0.625,0.24 0.625,0.54 V 2.78 c 0,0.244 -0.088,0.374 -0.294,0.46 l 0.488,0.442 h -0.576 l -0.397,-0.358 -0.4,0.023 h -0.534 c -0.088,0 -0.187,-0.01 -0.3,-0.038 C 12.737,3.221 12.58,3.053 12.58,2.779 Z M 13.13,2.753 c 0,0.015 0.008,0.03 0.012,0.05 0.027,0.137 0.156,0.213 0.354,0.213 h 0.45 L 13.534,2.642 h 0.576 l 0.362,0.328 c 0.07,-0.038 0.11,-0.092 0.126,-0.16 0.004,-0.015 0.004,-0.034 0.004,-0.05 V 1.63 c 0,-0.015 0,-0.03 -0.004,-0.046 -0.027,-0.13 -0.156,-0.202 -0.35,-0.202 h -0.75 c -0.22,0 -0.366,0.095 -0.366,0.248 z"
         fill="#ce8b2c"
         id="path1552" />
      <path
         d="M 3.445,3.342 H 3.941 V 1.378 L 4.715,3.09 c 0.088,0.206 0.214,0.282 0.458,0.282 0.244,0 0.362,-0.076 0.454,-0.282 l 0.77,-1.712 v 1.964 h 0.5 V 1.378 C 6.897,1.188 6.821,1.096 6.661,1.046 6.284,0.932 6.031,1.031 5.917,1.286 L 5.157,2.979 4.425,1.286 C 4.315,1.031 4.059,0.932 3.678,1.046 3.522,1.096 3.445,1.186 3.445,1.378 Z M 7.308,1.744 h 0.5 v 1.08 c -0.004,0.06 0.02,0.198 0.3,0.202 H 9.18 v -1.29 h 0.5 v 1.765 c 0,0.435 -0.538,0.53 -0.79,0.534 H 7.32 V 3.703 H 8.895 C 9.215,3.669 9.177,3.509 9.177,3.455 V 3.325 H 8.12 C 7.628,3.321 7.312,3.105 7.308,2.855 Z"
         fill="#00678c"
         id="path1554" />
    </g>
  </g>
</svg>
