<?xml version="1.0" encoding="UTF-8" standalone="no"?>
<svg
   xmlns:dc="http://purl.org/dc/elements/1.1/"
   xmlns:cc="http://creativecommons.org/ns#"
   xmlns:rdf="http://www.w3.org/1999/02/22-rdf-syntax-ns#"
   xmlns:svg="http://www.w3.org/2000/svg"
   xmlns="http://www.w3.org/2000/svg"
   xmlns:sodipodi="http://sodipodi.sourceforge.net/DTD/sodipodi-0.dtd"
   xmlns:inkscape="http://www.inkscape.org/namespaces/inkscape"
   width="40.138mm"
   height="40.138mm"
   viewBox="0 0 40.138 40.138"
   version="1.1"
   id="svg8274"
   sodipodi:docname="node-.svg"
   inkscape:version="1.0.1 (3bc2e813f5, 2020-09-07)">
  <sodipodi:namedview
     pagecolor="#ffffff"
     bordercolor="#666666"
     borderopacity="1"
     objecttolerance="10"
     gridtolerance="10"
     guidetolerance="10"
     inkscape:pageopacity="0"
     inkscape:pageshadow="2"
     inkscape:window-width="1440"
     inkscape:window-height="863"
     id="namedview9"
     showgrid="false"
     inkscape:zoom="1.8160523"
     inkscape:cx="23.299253"
     inkscape:cy="130.02818"
     inkscape:window-x="1366"
     inkscape:window-y="0"
     inkscape:window-maximized="1"
     inkscape:current-layer="svg8274" />
  <defs
     id="defs8268">
    <clipPath
       id="a">
      <path
         d="M239.03 226.605l-42.13 24.317c-1.578.91-2.546 2.59-2.546 4.406v48.668c0 1.817.968 3.496 2.546 4.406l42.133 24.336c1.575.907 3.517.907 5.09 0l42.126-24.336c1.57-.91 2.54-2.59 2.54-4.406v-48.668c0-1.816-.97-3.496-2.55-4.406l-42.12-24.317c-.79-.453-1.67-.68-2.55-.68-.88 0-1.76.227-2.55.68"
         id="path906" />
    </clipPath>
    <linearGradient
       id="b"
       x1="-.348"
       x2="1.251"
       gradientTransform="matrix(-38.064915,77.652126,-77.652126,-38.064915,258.72325,244.62943)"
       gradientUnits="userSpaceOnUse">
      <stop
         offset=".3"
         stop-color="#3E863D"
         id="stop909" />
      <stop
         offset=".5"
         stop-color="#55934F"
         id="stop911" />
      <stop
         offset=".8"
         stop-color="#5AAD45"
         id="stop913" />
    </linearGradient>
    <clipPath
       id="c">
      <path
         d="M195.398 307.086c.403.523.907.976 1.5 1.316l36.14 20.875 6.02 3.46c.9.52 1.926.74 2.934.665.336-.027.672-.09 1-.183l44.434-81.36c-.34-.37-.738-.68-1.184-.94l-27.586-15.93-14.582-8.39c-.414-.24-.863-.41-1.32-.53zm0 0"
         id="path916" />
    </clipPath>
    <linearGradient
       id="d"
       x1="-.456"
       x2=".582"
       gradientTransform="matrix(106.8057,-78.916731,78.916731,106.8057,235.18824,285.39477)"
       gradientUnits="userSpaceOnUse">
      <stop
         offset=".57"
         stop-color="#3E863D"
         id="stop919" />
      <stop
         offset=".72"
         stop-color="#619857"
         id="stop921" />
      <stop
         offset="1"
         stop-color="#76AC64"
         id="stop923" />
    </linearGradient>
    <clipPath
       id="e">
      <path
         d="M241.066 225.953c-.707.07-1.398.29-2.035.652l-42.01 24.247 45.3 82.51c.63-.09 1.25-.3 1.81-.624l42.13-24.336c1.3-.754 2.19-2.03 2.46-3.476l-46.18-78.89c-.34-.067-.68-.102-1.03-.102-.14 0-.28.007-.42.02"
         id="path926" />
    </clipPath>
    <linearGradient
       id="f"
       x1=".043"
       x2=".984"
       gradientTransform="matrix(97.417,0,0,97.417,192.862,279.652)"
       gradientUnits="userSpaceOnUse">
      <stop
         offset=".16"
         stop-color="#6BBF47"
         id="stop929" />
      <stop
         offset=".38"
         stop-color="#79B461"
         id="stop931" />
      <stop
         offset=".47"
         stop-color="#75AC64"
         id="stop933" />
      <stop
         offset=".7"
         stop-color="#659E5A"
         id="stop935" />
      <stop
         offset=".9"
         stop-color="#3E863D"
         id="stop937" />
    </linearGradient>
  </defs>
  <metadata
     id="metadata8271">
    <rdf:RDF>
      <cc:Work
         rdf:about="">
        <dc:format>image/svg+xml</dc:format>
        <dc:type
           rdf:resource="http://purl.org/dc/dcmitype/StillImage" />
        <dc:title></dc:title>
      </cc:Work>
    </rdf:RDF>
  </metadata>
  <g
     id="g1012"
     transform="matrix(1.0435911,0,0,1.0435911,88.57172,-101.82149)">
    <path
       fill="#689f63"
       d="m -65.63464,136.02959 c -0.515055,0 -1.026581,-0.13512 -1.478136,-0.39511 l -4.704989,-2.78553 c -0.702732,-0.39299 -0.359832,-0.53199 -0.128058,-0.61207 0.936976,-0.32808 1.127123,-0.40216 2.127246,-0.97014 0.105128,-0.06 0.242711,-0.0388 0.350308,0.0247 l 3.614554,2.14488 c 0.130528,0.0706 0.315736,0.0706 0.436738,0 l 14.093446,-8.13504 c 0.130528,-0.0741 0.215194,-0.22577 0.215194,-0.381 v -16.26302 c 0,-0.16228 -0.08467,-0.30692 -0.218016,-0.38806 l -14.087801,-8.12798 c -0.130528,-0.0776 -0.303389,-0.0776 -0.433916,0 l -14.084979,8.12798 c -0.136525,0.0776 -0.223308,0.22931 -0.223308,0.38453 v 16.26303 c 0,0.15522 0.08467,0.30338 0.218721,0.37747 l 3.859382,2.22955 c 2.095496,1.04775 3.376077,-0.18697 3.376077,-1.42875 v -16.05136 c 0,-0.2293 0.179916,-0.40569 0.409222,-0.40569 h 1.785052 c 0.222249,0 0.405694,0.17639 0.405694,0.40569 v 16.05842 c 0,2.79399 -1.523998,4.39913 -4.173354,4.39913 -0.814915,0 -1.456969,0 -3.249077,-0.88194 l -3.697104,-2.13078 c -0.913693,-0.52916 -1.478136,-1.51694 -1.478136,-2.57174 v -16.26303 c 0,-1.05833 0.564443,-2.04611 1.478136,-2.56822 l 14.107557,-8.138565 c 0.892526,-0.504471 2.077857,-0.504471 2.963328,0 l 14.089918,8.142095 c 0.910165,0.52564 1.478136,1.50989 1.478136,2.56822 v 16.26302 c 0,1.05481 -0.567971,2.03906 -1.478136,2.56822 l -14.089918,8.13857 c -0.451555,0.26105 -0.963082,0.39511 -1.485192,0.39511"
       id="path942"
       style="stroke-width:0.352777" />
    <path
       fill="#689f63"
       d="m -61.28137,124.82327 c -6.166544,0 -7.459473,-2.83068 -7.459473,-5.20487 0,-0.22578 0.182033,-0.4057 0.408164,-0.4057 h 1.820329 c 0.201083,0 0.370416,0.14641 0.402166,0.34502 0.275167,1.8549 1.093609,2.79047 4.822464,2.79047 2.970383,0 4.233325,-0.67099 4.233325,-2.24614 0,-0.90663 -0.359833,-1.58044 -4.974157,-2.03199 -3.859382,-0.381 -6.244155,-1.23119 -6.244155,-4.31799 0,-2.84339 2.398884,-4.53672 6.417015,-4.53672 4.51202,0 6.748627,1.56633 7.030848,4.93183 0.01058,0.11641 -0.03175,0.2293 -0.10936,0.31397 -0.07761,0.0811 -0.186972,0.13053 -0.299861,0.13053 h -1.830913 c -0.1905,0 -0.356305,-0.13406 -0.395111,-0.3175 -0.440971,-1.95086 -1.506358,-2.57528 -4.402658,-2.57528 -3.242022,0 -3.619493,1.12889 -3.619493,1.97555 0,1.02659 0.444499,1.32645 4.818935,1.905 4.332103,0.57503 6.388794,1.38642 6.388794,4.43088 0,3.06916 -2.561162,4.82952 -7.02732,4.82952"
       id="path944"
       style="stroke-width:0.352777"
       sodipodi:nodetypes="cssscsscssccsscsscsc" />
  </g>
</svg>
