<?xml version="1.0" encoding="UTF-8" standalone="no"?>
<svg
   xmlns:dc="http://purl.org/dc/elements/1.1/"
   xmlns:cc="http://creativecommons.org/ns#"
   xmlns:rdf="http://www.w3.org/1999/02/22-rdf-syntax-ns#"
   xmlns:svg="http://www.w3.org/2000/svg"
   xmlns="http://www.w3.org/2000/svg"
   width="40.138mm"
   height="40.138mm"
   viewBox="0 0 40.138 40.138"
   version="1.1"
   id="svg8274">
  <defs
     id="defs8268" />
  <metadata
     id="metadata8271">
    <rdf:RDF>
      <cc:Work
         rdf:about="">
        <dc:format>image/svg+xml</dc:format>
        <dc:type
           rdf:resource="http://purl.org/dc/dcmitype/StillImage" />
        <dc:title></dc:title>
      </cc:Work>
    </rdf:RDF>
  </metadata>
  <g
     id="layer1">
    <g
       id="g7464"
       transform="matrix(1.3497894,0,0,1.3497894,138.03288,-1216.5237)">
      <path
         id="path7460"
         style="fill:#2b4563;fill-opacity:1;stroke-width:0.264583"
         d="m -87.569411,901.26965 c -1.212759,0.006 -2.370916,0.10906 -3.389974,0.28938 -3.00202,0.53036 -3.54707,1.64045 -3.547071,3.68764 v 2.70371 h 7.094141 v 0.90123 h -7.094141 -2.662369 c -2.061755,0 -3.867085,1.23924 -4.431775,3.59668 -0.65135,2.70218 -0.68024,4.38839 0,7.2099 0.50428,2.10022 1.708562,3.59668 3.770316,3.59668 h 2.439128 v -3.24115 c 0,-2.34153 2.025953,-4.40696 4.431771,-4.40696 h 7.085872 c 1.972456,0 3.547071,-1.62406 3.54707,-3.60495 v -6.75514 c 0,-1.92256 -1.62189,-3.36677 -3.54707,-3.68764 -1.218667,-0.20286 -2.48314,-0.29502 -3.695898,-0.28938 z m -3.836459,2.17454 c 0.732776,0 1.331185,0.60818 1.331185,1.35599 0,0.74516 -0.598409,1.34772 -1.331185,1.34772 -0.735403,0 -1.331185,-0.60256 -1.331185,-1.34772 0,-0.74781 0.595782,-1.35599 1.331185,-1.35599 z" />
      <path
         id="path7462"
         style="fill:#ffbb0c;fill-opacity:1;stroke-width:0.264583"
         d="m -79.441742,908.85161 v 3.1502 c 0,2.4423 -2.070602,4.49791 -4.431771,4.49791 h -7.085872 c -1.940939,0 -3.54707,1.66119 -3.547071,3.60495 v 6.75515 c 0,1.92255 1.671793,3.05337 3.547071,3.60494 2.245606,0.6603 4.399025,0.77963 7.085872,0 1.785978,-0.5171 3.547071,-1.55776 3.54707,-3.60494 v -2.70371 h -7.085872 v -0.90124 h 7.085872 3.547072 c 2.061755,0 2.830049,-1.43812 3.547067,-3.59668 0.740656,-2.22221 0.709142,-4.35922 0,-7.2099 -0.509529,-2.05249 -1.48269,-3.59668 -3.547067,-3.59668 z m -3.985287,17.10697 c 0.735404,0 1.331185,0.60257 1.331185,1.34772 0,0.7478 -0.595782,1.35599 -1.331185,1.35599 -0.732776,0 -1.331185,-0.60819 -1.331185,-1.35599 10e-7,-0.74515 0.598408,-1.34772 1.331185,-1.34772 z" />
    </g>
  </g>
</svg>
