<?xml version="1.0" encoding="UTF-8" standalone="no"?>
<svg
   xmlns:dc="http://purl.org/dc/elements/1.1/"
   xmlns:cc="http://creativecommons.org/ns#"
   xmlns:rdf="http://www.w3.org/1999/02/22-rdf-syntax-ns#"
   xmlns:svg="http://www.w3.org/2000/svg"
   xmlns="http://www.w3.org/2000/svg"
   width="19.332001mm"
   height="19.332001mm"
   viewBox="0 0 19.332001 19.332001"
   version="1.1"
   id="svg85777">
  <defs
     id="defs85771" />
  <metadata
     id="metadata85774">
    <rdf:RDF>
      <cc:Work
         rdf:about="">
        <dc:format>image/svg+xml</dc:format>
        <dc:type
           rdf:resource="http://purl.org/dc/dcmitype/StillImage" />
        <dc:title></dc:title>
      </cc:Work>
    </rdf:RDF>
  </metadata>
  <g
     id="layer1">
    <path
       id="path8881"
       style="opacity:0.998;fill:#1a2635;fill-opacity:1;stroke:none;stroke-width:0.498676;stroke-linecap:round;stroke-linejoin:miter;stroke-miterlimit:4;stroke-dasharray:none;stroke-dashoffset:0;stroke-opacity:1;paint-order:normal"
       d="m 13.948095,2.3676336 -1.325465,1.3254782 0.27066,0.270673 -0.238765,0.2387238 0.254801,0.254836 -0.260454,0.2604136 0.363043,0.3630778 -1.290789,1.2907747 C 11.068798,5.9157839 10.184212,5.9349259 9.5514943,6.4294498 L 9.2147546,6.0927438 c -0.4121931,-0.4122409 -1.0879739,-0.4124475 -1.5001595,0 L 7.5068016,6.3005513 6.4485882,5.2423033 6.6831734,5.0077108 6.4227184,4.7472284 6.6775202,4.4924612 6.4387483,4.2536686 6.7094078,3.9830645 5.3839364,2.6575863 4.640002,3.4015066 0.72608847,7.31542 2.0662109e-6,8.0415067 1.3254735,9.3669849 1.5961254,9.096312 1.8348981,9.3351046 2.0897135,9.0802686 2.3501608,9.3407507 2.7043287,8.9865555 4.2298204,10.512061 c -0.00619,0.615159 0.2218534,1.230388 0.6927393,1.695647 l 0.4650538,0.459407 -0.3016998,0.301727 c -0.2781232,0.27811 -0.278309,0.73676 -1.654e-4,1.014869 l 2.7720537,2.772075 c 0.2781164,0.278108 0.7369659,0.278108 1.0150823,0 l 0.3083164,-0.308338 c 0.7316707,0.66508 1.8578863,0.701092 2.5768393,0 l 1.801604,-1.758238 c 0.439137,-0.42856 0.465942,-1.131305 0.06534,-1.588095 l 1.140037,-1.140048 c 0.446297,-0.446256 0.613184,-1.067338 0.500735,-1.644351 l 1.490443,-1.4904573 0.225648,0.2256411 0.260448,-0.2604133 0.254802,0.254836 0.238765,-0.2387926 0.270659,0.270673 1.325478,-1.3254783 z m -0.583526,3.065814 3.039008,3.039029 -1.324198,1.3241698 C 14.997379,9.6453009 14.892903,9.5029755 14.765051,9.3751099 L 12.094009,6.7040476 Z m -1.748951,1.4964477 v 0 l 2.797324,2.7972754 c 0.523712,0.5237193 0.523712,1.3559813 -7e-6,1.8797003 l -1.136262,1.136262 -2.456266,-2.48763 c 0.596582,0.370996 1.393267,0.318459 1.935061,-0.178475 0.101376,-0.093024 0.108076,-0.2507047 0.01508,-0.3521295 l -0.01219,-0.012394 h 0.0014 c -0.09506,-0.090339 -0.24384,-0.091647 -0.340452,0 -0.452819,0.4152705 -1.148932,0.3853185 -1.56423,-0.06748 l -0.0042,-0.00689 -0.650834,-0.6508271 0.32781,-0.3278235 c 0.09732,-0.097362 0.09732,-0.2551804 0,-0.3525427 -0.09734,-0.097358 -0.255199,-0.097358 -0.352589,-6.45e-5 L 9.3602561,9.1219253 h -0.00204 c -0.00136,0 -0.00204,0 -0.00347,0 -0.00204,0 -0.00415,0.00689 -0.00619,0.00689 l -0.4305897,0.430552 c -0.2541887,0.2542164 -0.6524178,0.253941 -0.9065997,0 -0.2541751,-0.2541475 -0.25412,-0.6520662 5.51e-5,-0.9062825 L 8.453349,8.211237 8.8950467,7.7695257 8.9708505,7.6937152 9.7834889,6.8810764 C 10.308895,6.403078 11.107487,6.4180886 11.615651,6.9265217 Z M 8.8621633,6.4450113 9.188823,6.7717329 8.1312151,7.8292925 c -0.00687,0.00689 -0.012806,0.013771 -0.018522,0.020657 L 8.1001597,7.8623435 7.8343552,8.1281278 7.6582695,8.3042614 c -0.4434396,0.4434328 -0.4434396,1.1680733 0,1.611506 0.4434396,0.4434326 1.1683624,0.4437086 1.611802,0 L 9.5285157,9.6573508 13.224066,13.399536 c 0.256551,0.259795 0.249906,0.67479 -0.01267,0.931071 l -1.801618,1.758239 c -0.522707,0.510155 -1.323379,0.49232 -1.8755279,0.0069 l 0.010193,-0.01033 c 0.2781233,-0.27811 0.2781233,-0.736966 6.8e-6,-1.015076 L 6.7723975,12.298254 c -0.2781232,-0.27811 -0.7367862,-0.277903 -1.0149094,0 l -0.017352,0.01722 -0.4670645,-0.46168 C 4.882686,11.468058 4.7037431,10.95212 4.7287309,10.44169 c 0.00136,-0.0117 0.00204,-0.02341 0.00204,-0.0358 0.03092,-0.4565842 0.2253101,-0.9062136 0.578624,-1.2512506 L 7.0670753,7.4380552 c 0.015214,-0.00964 0.029402,-0.021345 0.04214,-0.03374 L 7.6803481,6.8331534 c 0.00136,0 0.00204,0 0.00272,0 L 8.0671238,6.4490747 c 0.2216201,-0.2215787 0.5733439,-0.2213721 0.7949708,0 z M 6.09599,5.594364 7.1542034,6.6526121 7.0723886,6.734413 c -0.00136,0 -0.00204,0 -0.00272,0 L 4.9608999,8.7938964 C 4.6422823,9.1050567 4.4269488,9.4858992 4.3165657,9.8898774 L 3.0572092,8.6305698 Z m 0.3238094,7.05478 2.7720461,2.772074 c 0.088873,0.08889 0.088873,0.221028 1.43e-5,0.309921 l -0.1884181,0.18839 c -0.00347,0 -0.00619,0.0069 -0.00929,0.0096 l -0.4738321,0.473867 c -0.088859,0.08882 -0.2210282,0.08882 -0.3098869,-6.9e-5 L 5.4383744,13.630964 c -0.088872,-0.08889 -0.088687,-0.22089 1.654e-4,-0.309714 l 0.6715456,-0.671553 c 0.088865,-0.08889 0.2208349,-0.08903 0.309708,0 z" />
  </g>
</svg>
