<?xml version="1.0" encoding="UTF-8" standalone="no"?>
<svg
   xmlns:dc="http://purl.org/dc/elements/1.1/"
   xmlns:cc="http://creativecommons.org/ns#"
   xmlns:rdf="http://www.w3.org/1999/02/22-rdf-syntax-ns#"
   xmlns:svg="http://www.w3.org/2000/svg"
   xmlns="http://www.w3.org/2000/svg"
   width="40.138mm"
   height="40.138mm"
   viewBox="0 0 40.138 40.138"
   version="1.1"
   id="svg950">
  <defs
     id="defs944" />
  <metadata
     id="metadata947">
    <rdf:RDF>
      <cc:Work
         rdf:about="">
        <dc:format>image/svg+xml</dc:format>
        <dc:type
           rdf:resource="http://purl.org/dc/dcmitype/StillImage" />
        <dc:title></dc:title>
      </cc:Work>
    </rdf:RDF>
  </metadata>
  <g
     id="layer1">
    <path
       id="rect889"
       style="opacity:0.999;fill:#76af77;fill-opacity:1;stroke:none;stroke-width:0.688496;stroke-linecap:round;stroke-linejoin:round;stroke-dasharray:2.06549, 2.06549"
       d="M 4.5781012,-2.5585937e-7 C 2.0418372,-2.5585937e-7 -2.3975586e-4,2.0415897 -2.3975586e-4,4.5778697 V 35.559661 c 0,2.53627 2.04207695586,4.57834 4.57834095586,4.57834 H 35.5599 c 2.536264,0 4.57834,-2.04207 4.57834,-4.57834 V 6.9033597 L 26.295418,18.598759 17.791227,9.1110897 l 4.790613,-4.29293 4.334252,4.83524 10.793601,-9.11963996 C 37.069208,0.19390974 36.338228,-2.5585937e-7 35.5599,-2.5585937e-7 Z M 10.046372,20.621759 c 0.834144,0 1.599033,0.11177 2.294155,0.33574 0.695122,0.21626 1.30132,0.52902 1.818799,0.93837 0.525204,0.40935 0.946047,0.91529 1.262713,1.51773 0.316668,0.59471 0.509845,1.26669 0.579355,2.01587 H 13.22096 c -0.324389,-1.45203 -1.355579,-2.17829 -3.093384,-2.17829 -0.9268288,0 -1.6374368,0.15869 -2.1317468,0.47536 -0.486583,0.30894 -0.729894,0.73346 -0.729894,1.27411 0,0.22399 0.05428,0.42131 0.162411,0.59123 0.108128,0.16219 0.27784,0.31259 0.509547,0.45162 0.239432,0.1313 0.540694,0.25503 0.903702,0.37088 0.370732,0.115851 0.818715,0.227601 1.3439158,0.335741 0.455692,0.100399 0.922993,0.208489 1.401854,0.32434 0.486583,0.10814 0.957557,0.243358 1.41325,0.40555 0.463415,0.1622 0.899901,0.35905 1.309249,0.590749 0.40935,0.223991 0.768565,0.502271 1.077508,0.834379 0.308943,0.332121 0.552253,0.722141 0.729896,1.170112 0.17764,0.447958 0.266408,0.96906 0.266408,1.563781 0,0.70285 -0.14672,1.34815 -0.440216,1.935139 -0.285773,0.579271 -0.687298,1.081061 -1.204775,1.50586 -0.517482,0.417071 -1.131502,0.745479 -1.84207,0.984901 -0.702844,0.231719 -1.475555,0.347609 -2.317426,0.347609 -1.0504048,0 -1.9730348,-0.127399 -2.7685638,-0.38227 -0.795527,-0.262599 -1.4675,-0.629639 -2.015874,-1.10078 -0.540651,-0.471141 -0.965642,-1.035021 -1.274586,-1.691529 -0.301218,-0.6565 -0.486573,-1.382281 -0.556087,-2.177813 h 2.79231 c 0.09268,0.471131 0.250898,0.880482 0.474881,1.228052 0.231707,0.33983 0.509503,0.625461 0.833894,0.85716 0.332113,0.223991 0.703298,0.390019 1.112649,0.498149 0.409349,0.10813 0.8416858,0.162412 1.2973788,0.162412 0.463414,0 0.884255,-0.0465 1.262712,-0.139142 0.386179,-0.0927 0.714581,-0.224229 0.984905,-0.39415 0.278048,-0.177638 0.490544,-0.390138 0.637292,-0.637299 0.146749,-0.254881 0.21987,-0.536339 0.21987,-0.845291 0,-0.308939 -0.07312,-0.575721 -0.21987,-0.799698 -0.139023,-0.223981 -0.370837,-0.420831 -0.695227,-0.590762 -0.32439,-0.1699 -0.749381,-0.328128 -1.274585,-0.474869 -0.525204,-0.146751 -1.170037,-0.301292 -1.9346698,-0.463492 -0.872764,-0.18537 -1.625681,-0.405688 -2.259017,-0.660559 -0.633332,-0.262598 -1.154911,-0.567539 -1.564261,-0.91509 -0.401625,-0.355291 -0.698739,-0.764641 -0.891829,-1.228061 -0.19309,-0.463409 -0.289677,-0.996489 -0.289677,-1.598919 0,-0.64106 0.135222,-1.23162 0.405548,-1.77227 0.270325,-0.54837 0.648859,-1.01981 1.135446,-1.41371 0.494307,-0.39391 1.084862,-0.69885 1.772259,-0.91511 0.687398,-0.22397 1.448138,-0.33574 2.2822848,-0.33574 z m 13.670911,4.21696 c 0.803252,0 1.525357,0.13107 2.166415,0.39367 0.64878,0.26261 1.201175,0.64115 1.656864,1.13545 0.455689,0.494311 0.807082,1.100501 1.05424,1.818791 0.247153,0.718299 0.370406,1.533308 0.370406,2.444708 v 0.869032 h -7.622811 c 0.139025,0.872771 0.436139,1.529091 0.891829,1.96934 0.46341,0.432511 1.023628,0.648689 1.680134,0.648689 0.208535,0 0.416878,-0.0308 0.62542,-0.0926 0.21626,-0.0618 0.413113,-0.15055 0.590754,-0.266409 0.185364,-0.123571 0.343582,-0.27029 0.474881,-0.440221 0.139027,-0.177628 0.23976,-0.38231 0.301551,-0.614011 h 2.861641 c -0.139025,0.602432 -0.359341,1.135502 -0.660561,1.598922 -0.293495,0.46341 -0.652712,0.85344 -1.077508,1.170109 -0.417076,0.31667 -0.892197,0.555832 -1.425123,0.718029 -0.5252,0.162192 -1.088615,0.243131 -1.691055,0.243131 -0.810977,0 -1.552398,-0.131069 -2.224348,-0.393679 -0.664227,-0.262601 -1.235941,-0.64113 -1.714802,-1.135441 -0.478864,-0.502038 -0.849572,-1.1119 -1.112172,-1.830189 -0.262604,-0.71829 -0.394154,-1.533311 -0.394154,-2.444692 0,-0.895951 0.127403,-1.698991 0.382281,-2.409561 0.254876,-0.718299 0.614094,-1.328639 1.077508,-1.830669 0.463417,-0.50204 1.015808,-0.88424 1.656864,-1.14684 0.641054,-0.27032 1.351664,-0.40555 2.131746,-0.40555 z m 0,2.316949 c -0.548377,0 -1.027174,0.169712 -1.436518,0.509551 -0.409352,0.33983 -0.702785,0.84991 -0.880433,1.529601 h 4.622505 c -0.177645,-0.679691 -0.46741,-1.189771 -0.869035,-1.529601 -0.401625,-0.339839 -0.880423,-0.509551 -1.436519,-0.509551 z" />
  </g>
</svg>
