<?xml version="1.0" encoding="UTF-8" standalone="no"?>
<svg
   xmlns:dc="http://purl.org/dc/elements/1.1/"
   xmlns:cc="http://creativecommons.org/ns#"
   xmlns:rdf="http://www.w3.org/1999/02/22-rdf-syntax-ns#"
   xmlns:svg="http://www.w3.org/2000/svg"
   xmlns="http://www.w3.org/2000/svg"
   width="40.138mm"
   height="40.138mm"
   viewBox="0 0 40.138 40.138"
   version="1.1"
   id="svg8274">
  <defs
     id="defs8268" />
  <metadata
     id="metadata8271">
    <rdf:RDF>
      <cc:Work
         rdf:about="">
        <dc:format>image/svg+xml</dc:format>
        <dc:type
           rdf:resource="http://purl.org/dc/dcmitype/StillImage" />
        <dc:title></dc:title>
      </cc:Work>
    </rdf:RDF>
  </metadata>
  <g
     id="layer1">
    <g
       id="g7488"
       transform="matrix(1.0015891,0,0,1.0015891,23.685494,-877.45613)">
      <circle
         style="opacity:1;fill:#398db8;fill-opacity:1;stroke:none;stroke-width:2;stroke-linecap:round;stroke-linejoin:miter;stroke-miterlimit:4;stroke-dasharray:none;stroke-dashoffset:0;stroke-opacity:1;paint-order:normal"
         id="circle7476"
         cx="-3.6107562"
         cy="896.10114"
         r="20.037159" />
      <g
         id="g7486"
         transform="translate(69.70993,5.3044812)">
        <g
           id="g7484"
           style="clip-rule:evenodd;fill-rule:evenodd;image-rendering:optimizeQuality;shape-rendering:geometricPrecision;text-rendering:geometricPrecision"
           transform="matrix(0.1660889,0,0,0.1660889,-95.549556,869.64968)">
          <path
             class="fil1"
             d="m 172,100 c 1,-2 3,-2 3,-5 -4,0 -7,3 -9,4 l -67,42 13,41 c 2,-2 2,-4 2,-8 0,-2 1,-6 1,-8 v -7 c 1,-1 1,-2 1,-4 0,-1 0,-2 0,-3 1,-2 2,-1 3,-3 15,-16 36,-34 53,-49 z"
             id="path7478"
             style="fill:#99b1cd;fill-opacity:1" />
          <path
             class="fil2"
             d="m 66,129 33,12 70,-44 c 2,-1 4,-2 6,-2 0,3 -4,6 -6,8 -15,13 -40,32 -53,47 l 12,9 c 2,0 7,5 8,6 2,1 10,7 11,9 2,0 2,1 3,2 l 10,7 c 4,3 8,8 15,3 L 197,86 C 200,69 192,72 181,76 L 69,121 c -4,2 -8,7 -3,8 z"
             id="path7480"
             style="fill:#d3d3d3;fill-opacity:1" />
          <path
             class="fil3"
             d="m 112,182 1,1 c 2,0 4,-1 6,-3 l 17,-15 c -1,-1 -6,-6 -8,-6 l -12,-9 z"
             id="path7482"
             style="fill:#809bc0;fill-opacity:1" />
        </g>
      </g>
    </g>
  </g>
</svg>
