<?xml version="1.0" encoding="UTF-8" standalone="no"?>
<svg
   xmlns:dc="http://purl.org/dc/elements/1.1/"
   xmlns:cc="http://creativecommons.org/ns#"
   xmlns:rdf="http://www.w3.org/1999/02/22-rdf-syntax-ns#"
   xmlns:svg="http://www.w3.org/2000/svg"
   xmlns="http://www.w3.org/2000/svg"
   width="40.138mm"
   height="40.138mm"
   viewBox="0 0 40.138 40.138"
   version="1.1"
   id="svg8274">
  <defs
     id="defs8268" />
  <metadata
     id="metadata8271">
    <rdf:RDF>
      <cc:Work
         rdf:about="">
        <dc:format>image/svg+xml</dc:format>
        <dc:type
           rdf:resource="http://purl.org/dc/dcmitype/StillImage" />
        <dc:title></dc:title>
      </cc:Work>
    </rdf:RDF>
  </metadata>
  <g
     id="layer1">
    <g
       id="g7500"
       transform="matrix(1.7027987,0,0,1.7027987,909.36491,-1532.2165)">
      <path
         id="path7496"
         style="opacity:1;fill:#4e9ac1;fill-opacity:1;stroke:none;stroke-width:10.5034;stroke-linecap:round;stroke-linejoin:miter;stroke-miterlimit:4;stroke-dasharray:none;stroke-dashoffset:0;stroke-opacity:1;paint-order:normal"
         d="m -1974.2578,3400.9043 a 44.544982,44.544982 0 0 0 -9.2793,1.0605 v 11.5528 a 33.360097,33.360097 0 0 0 -6.0918,2.5234 l -8.168,-8.1699 a 44.544982,44.544982 0 0 0 -13.6582,13.6582 l 8.168,8.1699 a 33.360097,33.360097 0 0 0 -2.5215,6.0918 h -11.5547 a 44.544982,44.544982 0 0 0 -1.0605,9.6582 44.544982,44.544982 0 0 0 1.0605,9.6563 h 11.5528 a 33.360097,33.360097 0 0 0 2.5234,6.0937 l -8.168,8.168 a 44.544982,44.544982 0 0 0 13.6563,13.6601 l 8.1699,-8.1699 a 33.360097,33.360097 0 0 0 6.0918,2.5215 v 11.5547 a 44.544982,44.544982 0 0 0 9.6582,1.0605 44.544982,44.544982 0 0 0 9.6582,-1.0605 v -11.5547 a 33.360097,33.360097 0 0 0 6.0918,-2.5215 l 8.168,8.168 a 44.544982,44.544982 0 0 0 13.6601,-13.6563 l -8.1719,-8.1718 a 33.360097,33.360097 0 0 0 2.5254,-6.0918 h 11.5528 a 44.544982,44.544982 0 0 0 1.0605,-9.6563 44.544982,44.544982 0 0 0 -1.0605,-9.6582 h -11.5547 a 33.360097,33.360097 0 0 0 -2.5215,-6.0918 l 8.1699,-8.1699 a 44.544982,44.544982 0 0 0 -13.6582,-13.6582 l -8.1699,8.1699 a 33.360097,33.360097 0 0 0 -6.0918,-2.5234 v -11.5528 a 44.544982,44.544982 0 0 0 -9.6582,-1.0605 44.544982,44.544982 0 0 0 -0.3789,0 z"
         transform="scale(0.26458333)" />
      <path
         class="cls-2"
         d="m -524.3632,916.22459 c 4.28767,0 6.63285,-3.55231 6.63285,-6.63284 0,-0.1009 0,-0.20134 -0.007,-0.30133 a 4.7430702,4.7430702 0 0 0 1.16304,-1.20667 4.6530811,4.6530811 0 0 1 -1.33893,0.36677 2.3392663,2.3392663 0 0 0 1.02487,-1.28939 4.6717153,4.6717153 0 0 1 -1.48027,0.56584 2.3333579,2.3333579 0 0 0 -3.97271,2.12611 6.618301,6.618301 0 0 1 -4.80442,-2.43562 2.3329034,2.3329034 0 0 0 0.72172,3.1119 2.3138148,2.3138148 0 0 1 -1.05805,-0.29178 c 0,0.009 0,0.0195 0,0.0296 a 2.3319945,2.3319945 0 0 0 1.87024,2.28518 2.3274495,2.3274495 0 0 1 -1.05261,0.0401 2.3338124,2.3338124 0 0 0 2.17792,1.61889 4.6776234,4.6776234 0 0 1 -2.89511,0.99989 4.7453428,4.7453428 0 0 1 -0.55493,-0.0336 6.5996673,6.5996673 0 0 0 3.57321,1.04532"
         id="path7498"
         style="fill:#ffffff;stroke-width:0.0454491" />
    </g>
  </g>
</svg>
